<svg id="logo-semikron-danfoss" xmlns="http://www.w3.org/2000/svg" viewBox="0 0 2247.03 496.11">
  <path fill="#e30613" d="M852.52,282.24h-89.17v210.04h93.81c59.67,0,94.8-37.29,94.8-107.1s-36.46-102.94-99.45-102.94Zm-.33,173.07h-44.75v-136.1h43.09c37.12,0,55.69,20.08,55.69,65.97s-19.89,70.12-54.04,70.12Z"/>
  <polygon fill="#e30613" points="1354.37 406.54 1258.24 282.24 1215.81 282.24 1215.81 492.28 1259.9 492.28 1259.9 350.13 1354.37 470.61 1359.01 492.28 1398.45 492.28 1398.45 282.24 1354.37 282.24 1354.37 406.54"/>
  <polygon fill="#e30613" points="1465.08 492.28 1509.17 492.28 1509.17 416.42 1587.73 416.42 1587.73 380.4 1509.17 380.4 1509.17 318.26 1604.97 318.26 1604.97 282.24 1465.08 282.24 1465.08 492.28"/>
  <path fill="#e30613" d="M1731.91,279.37c-67.96,0-97.79,42.39-97.79,108.36s26.19,108.37,97.79,108.37,98.12-42.39,98.12-108.37-29.83-108.36-98.12-108.36Zm0,179.76c-42.43,0-52.05-30.6-52.05-71.4,0-43.66,9.62-71.71,52.05-71.71s52.38,28.05,52.38,71.71c0,40.8-9.61,71.4-52.38,71.4Z"/>
  <path fill="#e30613" d="M1966.26,367.98c-41.1-11.79-47.41-16.57-47.41-29.95s11.27-22,32.49-22c15.25,0,55.36,5.74,76.91,10.2l5.64-37.29c-24.86-4.78-60.67-9.56-83.2-9.56-47.08,0-76.25,21.99-76.25,64.06,0,31.56,18.56,49.08,65.97,62.78,45.74,13.39,54.36,17.21,54.36,32.19,0,13.07-12.6,20.72-36.13,20.72-14.92,0-53.36-5.1-77.24-9.57l-5.97,37.29c25.53,4.46,58.35,9.24,82.54,9.24,49.39,0,81.22-15.62,81.22-64.7,0-34.1-16.91-47.16-72.93-63.42Z"/>
  <path fill="#e30613" d="M2174.1,367.98c-41.1-11.79-47.41-16.57-47.41-29.95s11.27-22,32.49-22c15.25,0,55.35,5.74,76.91,10.2l5.64-37.29c-24.86-4.78-60.67-9.56-83.2-9.56-47.08,0-76.25,21.99-76.25,64.06,0,31.56,18.56,49.08,65.97,62.78,45.74,13.39,54.37,17.21,54.37,32.19,0,13.07-12.6,20.72-36.13,20.72-14.92,0-53.36-5.1-77.24-9.57l-5.97,37.29c25.53,4.46,58.35,9.24,82.54,9.24,49.39,0,81.21-15.62,81.21-64.7,0-34.1-16.91-47.16-72.93-63.42Z"/>
  <path fill="#e30613" d="M1043.97,282.24l-68.29,210.04h45.08l12.26-36.97h79.89l13.26,36.97h48.4l-71.6-210.04h-59Zm-1.33,137.37l28.84-96.57h2.32l30.83,96.57h-61.99Z"/>
  <path fill="#e30613" d="M840.94,179.76c-14.35,0-51.32-5.1-74.26-9.57l-5.74,37.29c24.54,4.46,56.1,9.24,79.36,9.24,47.49,0,78.09-15.62,78.09-64.7,0-34.1-16.25-47.16-70.12-63.42-39.52-11.79-45.58-16.57-45.58-29.95s10.84-22,31.24-22c14.66,0,53.22,5.74,73.94,10.2l5.42-37.29c-23.91-4.78-58.33-9.56-80-9.56-45.26,0-73.31,21.99-73.31,64.06,0,31.56,17.85,49.08,63.42,62.78,43.99,13.39,52.27,17.21,52.27,32.19,0,13.07-12.11,20.72-34.74,20.72Z"/>
  <polygon fill="#e30613" points="1088.9 176.89 998.07 176.89 998.07 124.94 1062.77 124.94 1062.77 89.88 998.07 89.88 998.07 38.56 1087.95 38.56 1087.95 2.87 955.68 2.87 955.68 212.91 1088.9 212.91 1088.9 176.89"/>
  <polygon fill="#e30613" points="1282.05 68.53 1280.14 118.88 1280.14 212.91 1322.53 212.91 1322.53 2.87 1274.72 2.87 1223.08 106.14 1171.77 2.87 1124.28 2.87 1124.28 212.91 1166.67 212.91 1166.67 118.88 1164.76 68.84 1206.19 151.07 1238.7 151.07 1282.05 68.53"/>
  <rect fill="#e30613" x="1370.97" y="2.87" width="42.39" height="210.04"/>
  <path fill="#e30613" d="M2029.14,108.36c0-65.97-28.69-108.36-94.34-108.36s-94.02,42.39-94.02,108.36,25.18,108.37,94.02,108.37,94.34-42.39,94.34-108.37Zm-144.38,0c0-43.66,9.24-71.71,50.04-71.71s50.36,28.05,50.36,71.71c0,40.8-9.25,71.4-50.36,71.4s-50.04-30.6-50.04-71.4Z"/>
  <polygon fill="#e30613" points="2108.5 70.76 2199.34 191.23 2203.8 212.91 2241.72 212.91 2241.72 2.87 2199.34 2.87 2199.34 127.18 2106.9 2.87 2066.1 2.87 2066.1 212.91 2108.5 212.91 2108.5 70.76"/>
  <rect fill="#e30613" x="1461.72" y="3.39" width="41.55" height="209.53"/>
  <polygon fill="#e30613" points="1582.04 3.39 1523.26 108.15 1582.04 212.91 1629.48 212.91 1570.69 108.15 1629.48 3.39 1582.04 3.39"/>
  <path fill="#e30613" d="M1697.03,140.88h43.67l32.51,72.03h45.26l-37.93-82.54c25.18-21.04,31.56-31.56,31.56-63.11,0-46.22-34.43-64.39-80.64-64.39h-76.81V212.91h42.39v-72.03Zm0-102.32h33.47c21.67,0,38.24,7.97,38.24,29.64,0,18.49-1.91,23.59-17.21,37.93h-54.5V38.56Z"/>
  <polygon fill="#e30613" points="201.22 114.06 115.27 268.67 373.16 268.58 335.12 337.61 98.92 337.61 47.16 245.67 158.69 44.68 402.31 44.57 426.08 2.02 135.33 2.17 0 245.67 74.93 380.86 358.51 380.86 444.4 226.02 187.44 226.09 225.78 156.77 464.55 156.79 513.33 245.53 399.97 449.43 160.35 449.35 136.81 492.01 424.73 492.18 561.38 246.02 488.19 114.06 201.22 114.06"/>
</svg>
