<?xml version="1.0" encoding="UTF-8" standalone="no"?>
<svg
   xmlns:dc="http://purl.org/dc/elements/1.1/"
   xmlns:cc="http://creativecommons.org/ns#"
   xmlns:rdf="http://www.w3.org/1999/02/22-rdf-syntax-ns#"
   xmlns:svg="http://www.w3.org/2000/svg"
   xmlns="http://www.w3.org/2000/svg"
   xmlns:sodipodi="http://sodipodi.sourceforge.net/DTD/sodipodi-0.dtd"
   xmlns:inkscape="http://www.inkscape.org/namespaces/inkscape"
   width="221"
   height="60"
   viewBox="0 0 442 120"
   version="1.1"
   id="svg28"
   sodipodi:docname="mathema-logo.svg"
   style="fill:none"
   inkscape:version="0.92.5 (2060ec1f9f, 2020-04-08)">
  <metadata
     id="metadata32">
    <rdf:RDF>
      <cc:Work
         rdf:about="">
        <dc:format>image/svg+xml</dc:format>
        <dc:type
           rdf:resource="http://purl.org/dc/dcmitype/StillImage" />
        <dc:title></dc:title>
      </cc:Work>
    </rdf:RDF>
  </metadata>
  <sodipodi:namedview
     pagecolor="#ffffff"
     bordercolor="#666666"
     borderopacity="1"
     objecttolerance="10"
     gridtolerance="10"
     guidetolerance="10"
     inkscape:pageopacity="0"
     inkscape:pageshadow="2"
     inkscape:window-width="1920"
     inkscape:window-height="1023"
     id="namedview30"
     showgrid="false"
     scale-x="2"
     inkscape:zoom="1.2579186"
     inkscape:cx="16.296763"
     inkscape:cy="30"
     inkscape:window-x="0"
     inkscape:window-y="0"
     inkscape:window-maximized="1"
     inkscape:current-layer="svg28" />
  <g
     clip-path="url(#clip0)"
     id="g6"
     transform="scale(1.982552)">
    <path
       d="m 103.49,20.1467 h -0.109 c -0.196,-0.0039 -0.391,0.0324 -0.573,0.1065 -0.182,0.0742 -0.346,0.1848 -0.484,0.3249 -0.138,0.1401 -0.245,0.3068 -0.316,0.4899 -0.071,0.1832 -0.104,0.3788 -0.096,0.5751 0.007,0.1962 0.054,0.3889 0.139,0.5662 0.084,0.1773 0.204,0.3354 0.352,0.4648 0.148,0.1293 0.32,0.2272 0.507,0.2875 0.187,0.0603 0.384,0.0818 0.58,0.0632 h 7.449 v 15.8126 c 0.046,0.3836 0.234,0.7359 0.528,0.9868 0.293,0.251 0.671,0.3822 1.057,0.3676 0.401,0.0184 0.793,-0.1231 1.09,-0.3935 0.297,-0.2705 0.475,-0.6477 0.494,-1.0489 V 23.0248 h 8.005 c 0.196,0.003 0.391,-0.0339 0.572,-0.1087 0.182,-0.0747 0.346,-0.1857 0.483,-0.3261 0.137,-0.1404 0.244,-0.3073 0.314,-0.4904 0.07,-0.1832 0.103,-0.3787 0.095,-0.5748 -0.008,-0.196 -0.056,-0.3883 -0.141,-0.5653 -0.084,-0.1769 -0.204,-0.3347 -0.352,-0.4637 -0.148,-0.129 -0.32,-0.2265 -0.507,-0.2866 -0.187,-0.06 -0.384,-0.0813 -0.579,-0.0625 z m 48.081,0 h -0.129 c -0.362,0.0157 -0.707,0.1611 -0.972,0.4096 -0.265,0.2485 -0.431,0.5837 -0.47,0.9448 v 16.8961 c 0.023,0.397 0.2,0.7694 0.493,1.0376 0.294,0.2683 0.681,0.4111 1.078,0.3981 h 15.183 c 0.196,0.0023 0.39,-0.0354 0.571,-0.1108 0.181,-0.0753 0.345,-0.1867 0.481,-0.3274 0.137,-0.1407 0.243,-0.3077 0.313,-0.4908 0.069,-0.1832 0.101,-0.3786 0.093,-0.5744 -0.008,-0.1958 -0.057,-0.3878 -0.142,-0.5644 -0.085,-0.1766 -0.205,-0.334 -0.352,-0.4627 -0.148,-0.1286 -0.321,-0.2258 -0.507,-0.2856 -0.187,-0.0597 -0.384,-0.0808 -0.579,-0.062 H 153.223 V 32.1467 H 164.6 c 0.38,-0.0098 0.741,-0.1625 1.012,-0.4275 0.271,-0.265 0.433,-0.6227 0.451,-1.0014 -0.024,-0.3976 -0.203,-0.77 -0.497,-1.0381 -0.295,-0.2681 -0.683,-0.4107 -1.081,-0.3976 h -11.262 v -6.2573 h 13.544 c 0.383,-0.008 0.749,-0.1605 1.024,-0.4267 0.275,-0.2663 0.439,-0.6267 0.46,-1.009 -0.023,-0.4037 -0.205,-0.782 -0.505,-1.0522 -0.301,-0.2703 -0.697,-0.4106 -1.1,-0.3902 H 151.591 Z M 73.8488,20.5056 65.1332,33.86 56.4176,20.5056 56.3499,20.4108 c -0.1523,-0.1843 -0.3438,-0.3322 -0.5606,-0.4329 -0.2167,-0.1008 -0.4532,-0.1519 -0.6922,-0.1495 -0.3856,-0.0131 -0.7621,0.1187 -1.0554,0.3694 -0.2933,0.2507 -0.4821,0.602 -0.5293,0.985 v 0.088 17.5531 c 0.0457,0.3835 0.2341,0.7358 0.5277,0.9868 0.2936,0.251 0.671,0.3822 1.057,0.3676 0.4008,0.0147 0.7912,-0.1292 1.0866,-0.4005 0.2954,-0.2713 0.4719,-0.6481 0.4912,-1.0488 V 26.4649 l 7.1377,10.8353 0.0881,0.1151 c 0.1236,0.1482 0.2755,0.2702 0.4469,0.3589 0.3641,0.1892 0.7849,0.2385 1.1829,0.1387 0.398,-0.0998 0.7457,-0.3419 0.9774,-0.6805 l 7.0835,-10.7742 v 12.2573 c 0.0263,0.4015 0.2043,0.778 0.498,1.053 0.2936,0.2751 0.6809,0.4281 1.0833,0.4281 0.4023,0 0.7896,-0.153 1.0833,-0.4281 0.2936,-0.275 0.4717,-0.6515 0.4979,-1.053 V 21.3047 21.2166 21.1083 c -0.0638,-0.3693 -0.2597,-0.7029 -0.5513,-0.9384 -0.2915,-0.2355 -0.6588,-0.3569 -1.0333,-0.3415 -0.264,-0.0067 -0.5255,0.0515 -0.7617,0.1696 -0.2361,0.1181 -0.4397,0.2924 -0.5927,0.5076 z m 10.8013,6.4605 v -0.0948 c 0.1328,-0.992 0.576,-1.9165 1.2664,-2.6411 1.0361,-1.0632 2.5937,-1.6118 4.6253,-1.6321 2.0316,-0.0203 3.6636,0.5553 4.7404,1.6321 0.7662,0.8175 1.2256,1.8752 1.3002,2.9932 V 29.255 H 84.6501 Z m 6.0948,-7.1377 h -0.772 c -2.7901,0.1219 -4.9639,0.9413 -6.4605,2.4718 -1.2075,1.2553 -1.9278,2.9 -2.0316,4.6388 v 11.7765 c 0.0263,0.4015 0.2043,0.778 0.498,1.053 0.2936,0.2751 0.6809,0.4281 1.0833,0.4281 0.4023,0 0.7896,-0.153 1.0833,-0.4281 0.2936,-0.275 0.4716,-0.6515 0.4979,-1.053 v -6.535 h 11.9256 v 6.535 c 0.0364,0.3933 0.2184,0.7587 0.5103,1.0248 0.2919,0.266 0.6726,0.4135 1.0675,0.4135 0.395,0 0.7757,-0.1475 1.0675,-0.4135 0.2919,-0.2661 0.4739,-0.6315 0.5104,-1.0248 V 27.088 26.8171 C 99.6045,25.1221 98.8842,23.5255 97.693,22.3137 96.1625,20.702 93.8194,19.8758 90.7449,19.8284 Z M 142.09,21.264 v 8.0249 h -11.858 v -8.1264 c -0.064,-0.3742 -0.259,-0.7134 -0.55,-0.9579 -0.29,-0.2444 -0.658,-0.3785 -1.038,-0.3785 -0.379,0 -0.747,0.1341 -1.037,0.3785 -0.291,0.2445 -0.486,0.5837 -0.551,0.9579 v 17.6681 c 0.068,0.3806 0.27,0.724 0.571,0.9672 0.3,0.2432 0.678,0.3699 1.064,0.3567 0.387,-0.0132 0.755,-0.1653 1.038,-0.4284 0.283,-0.2631 0.462,-0.6196 0.503,-1.0038 v -6.535 h 11.872 v 6.6433 c 0.062,0.3859 0.263,0.7359 0.565,0.9843 0.301,0.2484 0.683,0.3781 1.074,0.3648 0.391,-0.0133 0.763,-0.1687 1.047,-0.437 0.284,-0.2684 0.461,-0.6312 0.497,-1.0204 V 21.1692 c -0.048,-0.3841 -0.237,-0.7365 -0.532,-0.9873 -0.295,-0.2508 -0.673,-0.3819 -1.06,-0.3671 -0.401,-0.0184 -0.793,0.1232 -1.09,0.3936 -0.297,0.2704 -0.475,0.6476 -0.494,1.0489 z m 51.542,-0.772 -8.716,13.368 -8.715,-13.3544 -0.068,-0.0948 c -0.156,-0.1848 -0.351,-0.3327 -0.571,-0.4334 -0.22,-0.1006 -0.46,-0.1515 -0.702,-0.149 -0.385,-0.0129 -0.76,0.1191 -1.053,0.3699 -0.292,0.2508 -0.479,0.6021 -0.525,0.9845 V 38.79 c 0.055,0.3884 0.252,0.7428 0.552,0.9952 0.3,0.2525 0.683,0.3851 1.075,0.3725 0.392,-0.0126 0.766,-0.1695 1.049,-0.4407 0.284,-0.2712 0.457,-0.6375 0.487,-1.0286 V 26.4717 l 7.137,10.8352 0.082,0.1152 c 0.126,0.1482 0.28,0.2702 0.453,0.3589 0.238,0.1253 0.503,0.1904 0.772,0.1896 0.269,-5e-4 0.533,-0.0676 0.77,-0.1952 0.236,-0.1276 0.437,-0.3119 0.585,-0.5362 l 7.077,-10.7743 v 12.2506 c 0.036,0.395 0.219,0.7621 0.512,1.0294 0.293,0.2672 0.676,0.4154 1.072,0.4154 0.397,0 0.779,-0.1482 1.072,-0.4154 0.294,-0.2673 0.476,-0.6344 0.513,-1.0294 V 21.3047 21.2166 21.1083 c -0.065,-0.3645 -0.259,-0.6936 -0.546,-0.9273 -0.287,-0.2337 -0.648,-0.3564 -1.019,-0.3459 -0.263,-0.0049 -0.524,0.0541 -0.76,0.1721 -0.236,0.1179 -0.44,0.2912 -0.594,0.5051 z m 11.363,6.4808 c 0.129,-1.0172 0.58,-1.9666 1.287,-2.7088 1.03,-1.0632 2.594,-1.6117 4.625,-1.632 2.032,-0.0203 3.657,0.5553 4.7,1.632 0.769,0.8157 1.229,1.8745 1.3,2.9933 v 2.0316 H 205.05 Z m 5.648,-7.1309 c -2.939,0.0677 -5.228,0.8939 -6.772,2.4786 -1.21,1.2533 -1.931,2.8992 -2.031,4.6388 v 0.0406 c 0.001,0.0135 0.001,0.0271 0,0.0407 v 11.6817 c 0.036,0.3932 0.218,0.7587 0.51,1.0247 0.292,0.2661 0.673,0.4136 1.068,0.4136 0.395,0 0.775,-0.1475 1.067,-0.4136 0.292,-0.266 0.474,-0.6315 0.51,-1.0247 v -6.5418 h 11.912 v 6.5418 c 0.027,0.4015 0.205,0.7779 0.498,1.053 0.294,0.275 0.681,0.4281 1.084,0.4281 0.402,0 0.789,-0.1531 1.083,-0.4281 0.294,-0.2751 0.472,-0.6515 0.498,-1.053 V 27.088 26.8374 c -0.092,-1.6791 -0.779,-3.2706 -1.937,-4.4898 -1.571,-1.6118 -3.921,-2.438 -6.975,-2.4854 z"
       id="path2"
       inkscape:connector-curvature="0"
       style="fill:#b80743" />
    <path
       d="M 0.108359,59.2957 C 3.22348,62.6343 29.9797,54.0271 30.6501,33.0339 30.8804,25.7336 27.3725,23.2144 25.307,23.2144 24.6947,23.2212 24.0897,23.3478 23.526,23.5869 12.1896,28.1445 -1.35439,56.7765 0.108359,59.2957 Z M 30.7517,15.9074 c 0.0392,0.3695 0.1847,0.7197 0.4187,1.0083 0.234,0.2886 0.5466,0.5032 0.9,0.6179 0.3535,0.1147 0.7325,0.1246 1.0914,0.0284 0.3589,-0.0961 0.6823,-0.2941 0.931,-0.5701 0.2488,-0.276 0.4123,-0.6182 0.4707,-0.9851 0.0584,-0.3669 0.0094,-0.7429 -0.1413,-1.0825 -0.1507,-0.3396 -0.3966,-0.6283 -0.7078,-0.8312 -0.3113,-0.2029 -0.6747,-0.3113 -1.0462,-0.3121 -0.3491,0.0419 -0.6895,0.1378 -1.0091,0.2845 0,0 2.7089,-5.2348 7.0971,-3.9955 6.0948,1.7133 8.8646,20.465 -7.8691,38.2957 -0.0575,0.0604 -0.0912,0.1396 -0.0948,0.223 -0.0037,0.0833 0.023,0.1652 0.075,0.2304 0.052,0.0652 0.1259,0.1094 0.208,0.1244 0.082,0.015 0.1668,-2e-4 0.2385,-0.0428 C 43.842,40.2935 51.5892,19.1038 42.7111,7.36795 43.5914,5.93228 44.3838,1.95034 43.0497,0 41.5508,1.46759 39.968,2.84689 38.3093,4.13093 c 0,0 -5.6005,-2.9052 -11.0587,0.25056 C 27.5305,3.17712 27.3288,1.91103 26.6885,0.853273 23.9187,5.26862 23.1738,9.28442 24.9549,14.5598 c -0.3097,0.5757 -0.4238,1.2365 -0.3251,1.8826 0.5553,1.2664 1.3544,1.1513 1.7472,1.0497 0.7888,1.1665 1.6482,2.2838 2.5733,3.3454 0.7991,-2.4176 1.4763,-4.2799 1.8014,-4.9301 z"
       id="path4"
       inkscape:connector-curvature="0"
       style="clip-rule:evenodd;fill:url(#paint0_linear);fill-rule:evenodd" />
  </g>
  <defs
     id="defs26">
    <linearGradient
       id="paint0_linear"
       x1="-2.4988699"
       y1="56.702"
       x2="48.623001"
       y2="5.57337"
       gradientUnits="userSpaceOnUse">
      <stop
         stop-color="#E2E3E7"
         id="stop8" />
      <stop
         offset="0.17"
         stop-color="#DEDFE3"
         id="stop10" />
      <stop
         offset="0.34"
         stop-color="#D2D4D8"
         id="stop12" />
      <stop
         offset="0.51"
         stop-color="#BFC0C5"
         id="stop14" />
      <stop
         offset="0.67"
         stop-color="#A3A5AB"
         id="stop16" />
      <stop
         offset="0.84"
         stop-color="#7F8389"
         id="stop18" />
      <stop
         offset="1"
         stop-color="#54585F"
         id="stop20" />
    </linearGradient>
    <clipPath
       id="clip0">
      <rect
         width="220.12399"
         height="60"
         id="rect23"
         x="0"
         y="0"
         style="fill:#ffffff" />
    </clipPath>
  </defs>
</svg>
